<?xml version="1.0" encoding="UTF-8" standalone="no"?>
<!-- Created with Inkscape (http://www.inkscape.org/) -->

<svg
   width="169.12498mm"
   height="105.91586mm"
   viewBox="0 0 169.12498 105.91586"
   version="1.1"
   id="svg5"
   xmlns="http://www.w3.org/2000/svg"
   xmlns:svg="http://www.w3.org/2000/svg">
  <defs
     id="defs2" />
  <g
     id="layer1"
     transform="translate(-21.65625,-44.687503)">
    <rect
       style="fill:#000000;stroke-width:1;stroke-miterlimit:4.5;paint-order:markers fill stroke;stop-color:#000000"
       id="rect234"
       width="169.125"
       height="104.5"
       x="-190.78125"
       y="44.6875"
       transform="scale(-1,1)" />
    <path
       style="fill:#ffffff;stroke-width:1;stroke-miterlimit:4.5;paint-order:markers fill stroke;stop-color:#000000"
       d="m 58.09375,149.1875 0.34375,-22.85938 -5.32812,-11.08593 -14.00781,-1.03125 -5.24219,8.16406 3.00781,26.8125 z"
       id="path290" />
    <path
       style="fill:#ffffff;stroke:#000000;stroke-width:1;stroke-miterlimit:4.5;paint-order:markers fill stroke;stop-color:#000000"
       d="m 56.69171,128.58295 c 0,0 7.59587,13.0649 7.41357,13.91564 -0.1823,0.85073 -7.83894,5.22596 -7.83894,5.22596 z"
       id="path346" />
    <path
       style="fill:#ffffff;stroke:#000000;stroke-width:1;stroke-miterlimit:4.5;paint-order:markers fill stroke;stop-color:#000000"
       d="m 55.77344,120.78515 -3.76079,-1.37802 2.19391,-1.88209 z"
       id="path348" />
    <path
       style="fill:none;stroke:#ffffff;stroke-width:1;stroke-miterlimit:4.5;paint-order:markers fill stroke;stop-color:#000000"
       d="m 48.12356,118.7387 -3.22065,-6.80591 2.43068,-4.25369"
       id="path350" />
    <path
       style="fill:none;stroke:#ffffff;stroke-width:1;stroke-miterlimit:4.5;paint-order:markers fill stroke;stop-color:#000000"
       d="m 40.40616,118.07026 c 0,0 -0.97228,-7.35281 -0.97228,-7.59587 0,-0.24307 2.43068,-3.04336 2.43068,-3.04336"
       id="path460" />
    <path
       style="fill:none;stroke:#ffffff;stroke-width:1;stroke-miterlimit:4.5;paint-order:markers fill stroke;stop-color:#000000"
       d="m 38.93388,144.375 -4.00029,-0.42969 1.20313,-16.5 z"
       id="path617" />
    <path
       style="fill:#ffffff;stroke:none;stroke-width:1;stroke-miterlimit:4.5;paint-order:markers fill stroke;stop-color:#000000"
       d="M 190.78125,61.982328 C 179.04751,61.255937 174.64063,55.0344 175.73424,44.6875 h 15.04701 z"
       id="path619" />
    <path
       style="fill:#ffffff;stroke:none;stroke-width:0.832042;stroke-miterlimit:4.5;paint-order:markers fill stroke;stop-color:#000000"
       d="m 34.77208,61.39191 c 2.15658,0.247786 4.14458,-0.16222 5.82298,-1.78068 -0.61574,2.145666 0.91874,3.476442 2.80594,4.67354 -2.15656,-0.912622 -3.77616,-0.48475 -5.00264,0.924442 -0.56824,-1.990518 -2.119,-2.879536 -3.62628,-3.817302 z"
       id="path670" />
    <path
       style="fill:#ffffff;stroke:none;stroke-width:0.416021;stroke-miterlimit:4.5;paint-order:markers fill stroke;stop-color:#000000"
       d="m 33.93498,83.490396 c 0.22528,1.061738 0.73561,1.939028 1.76962,2.477472 -1.11505,0.04912 -1.50205,0.988071 -1.76962,2.072986 0.0899,-1.167395 -0.37035,-1.8672 -1.23333,-2.224668 0.85333,-0.58574 1.02832,-1.462197 1.23333,-2.32579 z"
       id="path670-3" />
    <path
       style="fill:#ffffff;stroke:none;stroke-width:0.788498;stroke-miterlimit:4.5;paint-order:markers fill stroke;stop-color:#000000"
       d="m 50.91308,79.244348 c 0.42698,2.012346 1.39423,3.675103 3.35402,4.695633 -2.11339,0.0931 -2.84688,1.872723 -3.35402,3.928998 0.17039,-2.212602 -0.70193,-3.538965 -2.33757,-4.216486 1.61735,-1.110172 1.94901,-2.771349 2.33757,-4.408145 z"
       id="path670-7" />
    <path
       style="fill:#ffffff;stroke:none;stroke-width:0.416021;stroke-miterlimit:4.5;paint-order:markers fill stroke;stop-color:#000000"
       d="m 40.31987,60.974771 c 0.22528,1.061738 0.73561,1.939028 1.76962,2.477472 -1.11505,0.04912 -1.50205,0.988071 -1.76962,2.072986 0.0899,-1.167395 -0.37035,-1.8672 -1.23333,-2.224668 0.85333,-0.58574 1.02832,-1.462197 1.23333,-2.32579 z"
       id="path670-38" />
    <path
       style="fill:#ffffff;stroke:none;stroke-width:0.416021;stroke-miterlimit:4.5;paint-order:markers fill stroke;stop-color:#000000"
       d="m 53.87248,68.881021 c 0.22528,1.061738 0.73561,1.939028 1.76962,2.477472 -1.11505,0.04912 -1.50205,0.988071 -1.76962,2.072986 0.0899,-1.167395 -0.37035,-1.8672 -1.23333,-2.224668 0.85333,-0.58574 1.02832,-1.462197 1.23333,-2.32579 z"
       id="path670-4" />
    <path
       style="fill:#ffffff;stroke:none;stroke-width:0.416021;stroke-miterlimit:4.5;paint-order:markers fill stroke;stop-color:#000000"
       d="m 156.072,53.334914 c 0.94423,0.535239 1.93934,0.734794 3.02796,0.317652 -0.70247,0.867347 -0.25609,1.779566 0.37874,2.699144 -0.81436,-0.841246 -1.6434,-0.960627 -2.48315,-0.551546 0.12722,-1.02717 -0.41293,-1.739237 -0.92355,-2.46525 z"
       id="path670-2" />
    <path
       style="fill:#ffffff;stroke:none;stroke-width:0.416021;stroke-miterlimit:4.5;paint-order:markers fill stroke;stop-color:#000000"
       d="m 174.35685,75.756021 c 0.22528,1.061738 0.73561,1.939028 1.76962,2.477472 -1.11505,0.04912 -1.50205,0.988071 -1.76962,2.072986 0.0899,-1.167395 -0.37035,-1.8672 -1.23333,-2.224668 0.85333,-0.58574 1.02832,-1.462197 1.23333,-2.32579 z"
       id="path670-43" />
    <path
       style="fill:#ffffff;stroke:none;stroke-width:0.416021;stroke-miterlimit:4.5;paint-order:markers fill stroke;stop-color:#000000"
       d="m 173.09292,112.69813 c 1.07176,0.17136 2.07384,0.0104 2.94794,-0.76097 -0.35493,1.05819 0.38221,1.7568 1.29846,2.39642 -1.05707,-0.50346 -1.87554,-0.32548 -2.51927,0.35137 -0.23992,-1.00683 -0.99492,-1.48513 -1.72713,-1.98682 z"
       id="path670-49" />
    <path
       style="fill:#ffffff;stroke:none;stroke-width:0.6429;stroke-miterlimit:4.5;paint-order:markers fill stroke;stop-color:#000000"
       d="m 149.76383,127.41505 c 0.34814,1.64074 1.13678,2.99647 2.73469,3.82856 -1.72315,0.0759 -2.3212,1.52692 -2.73469,3.20349 0.13893,-1.80403 -0.57232,-2.88548 -1.90593,-3.43789 1.3187,-0.90517 1.58912,-2.25961 1.90593,-3.59416 z"
       id="path670-0" />
    <path
       style="fill:#ffffff;stroke:none;stroke-width:0.416021;stroke-miterlimit:4.5;paint-order:markers fill stroke;stop-color:#000000"
       d="m 137.57561,137.63102 c 0.22528,1.06174 0.7356,1.93903 1.76962,2.47747 -1.11505,0.0491 -1.50205,0.98807 -1.76962,2.07299 0.0899,-1.1674 -0.37035,-1.8672 -1.23333,-2.22467 0.85333,-0.58574 1.02832,-1.4622 1.23333,-2.32579 z"
       id="path670-42" />
    <path
       style="fill:#ffffff;stroke:none;stroke-width:0.498688;stroke-miterlimit:4.5;paint-order:markers fill stroke;stop-color:#000000"
       d="m 153.97692,104.24244 c 0.27005,1.2727 0.88178,2.32432 2.12126,2.96976 -1.33662,0.0589 -1.80052,1.18441 -2.12126,2.4849 0.10777,-1.39936 -0.44394,-2.23823 -1.4784,-2.66672 1.02289,-0.70213 1.23266,-1.75275 1.4784,-2.78794 z"
       id="path670-380" />
    <path
       style="fill:#ffffff;stroke:none;stroke-width:0.416021;stroke-miterlimit:4.5;paint-order:markers fill stroke;stop-color:#000000"
       d="m 164.44927,86.060892 c -0.46547,0.980496 -0.59246,1.987447 -0.0976,3.043008 -0.91593,-0.637827 -1.79344,-0.126576 -2.66464,0.573167 0.78008,-0.873138 0.83913,-1.708645 0.37032,-2.516568 1.03369,0.05251 1.70478,-0.53777 2.39192,-1.099607 z"
       id="path670-1" />
    <path
       style="fill:#ffffff;stroke:none;stroke-width:0.416021;stroke-miterlimit:4.5;paint-order:markers fill stroke;stop-color:#000000"
       d="m 72.60686,143.47477 c 0.22528,1.06174 0.73561,1.93903 1.76962,2.47747 -1.11505,0.0491 -1.50205,0.98807 -1.76962,2.07299 0.0899,-1.1674 -0.37035,-1.8672 -1.23333,-2.22467 0.85333,-0.58574 1.02832,-1.4622 1.23333,-2.32579 z"
       id="path670-18" />
    <path
       style="fill:#ffffff;stroke:none;stroke-width:0.416021;stroke-miterlimit:4.5;paint-order:markers fill stroke;stop-color:#000000"
       d="m 104.74748,146.0529 c 0.22528,1.06173 0.73561,1.93902 1.76962,2.47747 -1.11505,0.0491 -1.50205,0.98807 -1.76962,2.07298 0.0899,-1.16739 -0.37035,-1.8672 -1.23333,-2.22466 0.85333,-0.58574 1.02832,-1.4622 1.23333,-2.32579 z"
       id="path670-16" />
    <path
       style="fill:#ffffff;stroke:none;stroke-width:0.416021;stroke-miterlimit:4.5;paint-order:markers fill stroke;stop-color:#000000"
       d="m 25.68498,139.69352 c 0.22528,1.06174 0.73561,1.93903 1.76962,2.47747 -1.11505,0.0491 -1.50205,0.98807 -1.76962,2.07299 0.0899,-1.1674 -0.37035,-1.8672 -1.23333,-2.22467 0.85333,-0.58574 1.02832,-1.4622 1.23333,-2.32579 z"
       id="path670-73" />
    <path
       style="fill:#ffffff;stroke:none;stroke-width:0.809578;stroke-miterlimit:4.5;paint-order:markers fill stroke;stop-color:#000000"
       d="m 29.85466,96.02941 c 0.4384,2.06613 1.4315,3.773339 3.44369,4.82116 -2.16989,0.0955 -2.92299,1.92279 -3.44369,4.03403 0.17495,-2.27174 -0.7207,-3.63358 -2.40006,-4.3292 1.66058,-1.139847 2.00111,-2.845441 2.40006,-4.52599 z"
       id="path670-34" />
  </g>
</svg>
